<svg width="1141" height="214" viewBox="0 0 1141 214" fill="none" xmlns="http://www.w3.org/2000/svg">
<g clip-path="url(#clip0_2247_17580)">
<path d="M1140.2 213.902L-0.00049953 212.361L0.270387 11.9997C0.279347 5.37227 5.65916 0.00695006 12.2866 0.0159103L1128.49 1.52501C1135.12 1.53397 1140.48 6.91382 1140.47 13.5412L1140.2 213.902Z" fill="#6256CA"/>
<path d="M117.266 167.52C117.266 167.52 115.097 138.935 106.517 126.996C97.9363 115.056 77.3407 111.966 77.3407 111.966C77.3407 111.966 97.9446 108.932 106.557 97.0156C115.17 85.0994 117.416 56.5202 117.416 56.5202C117.416 56.5202 119.584 85.1054 128.165 97.0448C136.745 108.984 157.341 112.074 157.341 112.074C157.341 112.074 136.737 115.109 128.124 127.025C119.511 138.941 117.266 167.52 117.266 167.52Z" fill="white" fill-opacity="0.25"/>
<path d="M47.3282 119.426C47.3282 119.426 45.1598 90.8413 36.5793 78.9019C27.9988 66.9624 7.40324 63.8724 7.40324 63.8724C7.40324 63.8724 28.0071 60.838 36.6198 48.9218C45.2326 37.0056 47.4782 8.42649 47.4782 8.42649C47.4782 8.42649 49.6466 37.0116 58.2271 48.951C66.8076 60.8904 87.4032 63.9805 87.4032 63.9805C87.4032 63.9805 66.7993 67.0149 58.1866 78.9311C49.5738 90.8472 47.3282 119.426 47.3282 119.426Z" fill="white" fill-opacity="0.1"/>
<path d="M188.367 90.6139C188.367 90.6139 186.212 52.2439 177.637 36.2211C169.062 20.1983 148.468 16.0599 148.468 16.0599C148.468 16.0599 169.073 11.9772 177.692 -4.02239C186.31 -20.022 188.569 -58.386 188.569 -58.386C188.569 -58.386 190.724 -20.016 199.299 -3.99318C207.874 12.0296 228.468 16.168 228.468 16.168C228.468 16.168 207.863 20.2507 199.244 36.2503C190.626 52.2499 188.367 90.6139 188.367 90.6139Z" fill="white" fill-opacity="0.1"/>
<path d="M56.625 271.439C56.625 271.439 54.9941 233.07 48.4608 217.05C41.9275 201.03 26.2258 196.898 26.2258 196.898C26.2258 196.898 41.9386 192.809 48.5152 176.806C55.0918 160.804 56.8265 122.439 56.8265 122.439C56.8265 122.439 58.4574 160.809 64.9907 176.829C71.524 192.849 87.2257 196.981 87.2257 196.981C87.2257 196.981 71.5129 201.07 64.9363 217.072C58.3597 233.075 56.625 271.439 56.625 271.439Z" fill="white" fill-opacity="0.1"/>
<path d="M187.734 192.615C187.734 192.615 186.083 169.181 179.542 159.393C173 149.606 157.296 147.074 157.296 147.074C157.296 147.074 173.007 144.585 179.575 134.815C186.143 125.045 187.857 101.615 187.857 101.615C187.857 101.615 189.509 125.05 196.05 134.837C202.592 144.625 218.296 147.156 218.296 147.156C218.296 147.156 202.585 149.646 196.017 159.415C189.449 169.185 187.734 192.615 187.734 192.615Z" fill="white" fill-opacity="0.1"/>
</g>
<defs>
<clipPath id="clip0_2247_17580">
<path d="M1140.2 213.902L-0.00049953 212.361L0.270387 11.9997C0.279347 5.37227 5.65916 0.00695006 12.2866 0.0159103L1128.49 1.52501C1135.12 1.53397 1140.48 6.91382 1140.47 13.5412L1140.2 213.902Z" fill="white"/>
</clipPath>
</defs>
</svg>
