<svg width="50" height="42" viewBox="0 0 50 42" fill="none" xmlns="http://www.w3.org/2000/svg">
<g clip-path="url(#clip0_2024_16048)">
<path d="M27.0854 7.0278C27.0854 6.0618 28.0167 5.2778 29.1688 5.2778H37.6604L34.9729 2.9748C34.1667 2.28355 34.1792 1.1758 35.0021 0.498547C35.8208 -0.175203 37.1438 -0.168203 37.9479 0.523047L42.4833 4.4098C43.2979 5.0923 43.7521 6.01455 43.7521 6.99805C43.7521 7.98155 43.2958 8.90555 42.4688 9.6003L37.9479 13.473C37.5417 13.823 37 13.998 36.4604 13.998C35.9333 13.998 35.4063 13.8318 35.0021 13.4975C34.1792 12.8203 34.1688 11.7125 34.9729 11.0213L37.5938 8.7743H29.1688C28.0167 8.7743 27.0854 7.9903 27.0854 7.0243V7.0278ZM48.2271 15.1915C47.1542 14.3708 45.7563 13.9455 44.3146 14.005C42.8625 14.061 41.525 14.5895 40.5771 15.4663L33.2 22.006C33.2667 22.3735 33.3354 22.741 33.3354 23.1225C33.3354 26.7678 30.0958 29.9055 25.8 30.42L16.9417 31.463C15.8021 31.5995 14.7479 30.9345 14.5854 29.979C14.4229 29.0218 15.2146 28.1363 16.3521 27.9998L25.0229 26.9795C26.9729 26.745 28.6646 25.569 29.0646 23.9485C29.6813 21.4548 27.4188 19.2498 24.5563 19.2498H18.75V17.4998H19.5333C22.5479 17.4998 25 15.44 25 12.9078C25 10.6538 23.0771 8.74805 20.4313 8.3788L13.5875 7.4198C12.9583 7.3323 12.5021 6.87905 12.5021 6.3418C12.5021 5.7398 13.0854 5.2498 13.8021 5.2498H19.3104C20.0521 5.2498 20.7438 5.5858 21.1167 6.1248C21.6896 6.9613 22.9604 7.2483 23.9625 6.76355C24.9583 6.2788 25.3 5.20955 24.7208 4.37305C23.6083 2.7543 21.5333 1.74805 19.3083 1.74805H18.75C18.75 0.782047 17.8188 -0.00195312 16.6667 -0.00195312C15.5146 -0.00195312 14.5833 0.782047 14.5833 1.74805H13.8C10.7854 1.74805 8.33334 3.8078 8.33334 6.34005C8.33334 8.59405 10.2563 10.4998 12.9021 10.869L19.7458 11.828C20.375 11.9155 20.8313 12.3688 20.8313 12.906C20.8313 13.508 20.2479 13.998 19.5313 13.998H14.0229C13.2813 13.998 12.5896 13.662 12.2167 13.123C11.6438 12.2848 10.3708 11.9978 9.37084 12.4843C8.375 12.969 8.03334 14.0383 8.6125 14.8748C9.725 16.4935 11.8 17.498 14.025 17.498H14.5833V19.248H8.33334C3.73125 19.248 0 22.3823 0 26.248V34.998C0 38.8638 3.73125 41.998 8.33334 41.998H17.2125C23.0563 41.998 28.6292 39.9365 32.575 36.3175L48.6208 21.6018C50.5958 19.7433 50.4167 16.8645 48.2271 15.188V15.1915Z" fill="#6256CA"/>
</g>
<defs>
<clipPath id="clip0_2024_16048">
<rect width="50" height="42" fill="white"/>
</clipPath>
</defs>
</svg>
