<svg width="40" height="52" viewBox="0 0 40 52" fill="none" xmlns="http://www.w3.org/2000/svg">
<path d="M11.0289 38.5306C12.6874 40.4476 14.1969 42.467 15.5463 44.5741C16.6985 46.5557 17.1788 47.8994 18.0209 50.2871C18.5373 51.6063 19.004 52 20.0074 52C21.1009 52 21.597 51.3302 21.9802 50.2943C22.7762 48.0394 23.4007 46.3186 24.386 44.6926C26.3195 41.5533 28.722 38.7637 31.0826 36.0827C31.7217 35.3239 35.8536 30.9033 37.7137 27.4152C37.7137 27.4152 40 23.5836 40 18.2324C40 13.2269 37.7453 9.75534 37.7453 9.75534L31.2539 11.3322L27.3117 20.7501L26.3364 22.0487L26.1414 22.284L25.882 22.5785L25.4267 23.0489L24.776 23.6389L21.2656 26.2331L12.489 30.8296L11.0289 38.5306Z" fill="#EA4335"/>
<path d="M1.97063 26.7711C4.11267 31.209 8.24331 35.1101 11.038 38.5337L25.882 22.5846C25.882 22.5846 23.7907 25.0654 19.9973 25.0654C15.7718 25.0654 12.3582 22.0048 12.3582 18.1456C12.3582 15.4991 14.1135 13.681 14.1135 13.681L4.03705 16.1301L1.97063 26.7711Z" fill="#EA4335"/>
<path d="M26.0478 0.820173C30.9778 2.26196 35.1975 5.28882 37.7498 9.75222L25.8865 22.5754C25.8865 22.5754 27.6418 20.7244 27.6418 18.0944C27.6418 14.1453 23.9757 11.1951 20.0152 11.1951C16.2701 11.1951 14.1191 13.6718 14.1191 13.6718V5.59339L26.0478 0.820173Z" fill="#EA4335"/>
<path d="M4.68986 6.48613C7.6344 3.29061 12.8157 0 19.9588 0C23.4245 0 26.0354 0.825275 26.0354 0.825275L14.1079 13.6789H5.65705L4.68986 6.48613Z" fill="#EA4335"/>
<path d="M1.97063 26.7711C1.97063 26.7711 0 23.2707 0 18.1997C0 13.4069 2.05407 9.21749 4.68986 6.48613L14.1135 13.681L1.97063 26.7711Z" fill="#EA4335"/>
</svg>
