<svg width="40" height="34" viewBox="0 0 40 34" fill="none" xmlns="http://www.w3.org/2000/svg">
<g clip-path="url(#clip0_1966_18818)">
<path d="M0.800781 7.08352C0.800781 4.96864 2.56478 3.23828 4.72078 3.23828H34.1208C34.6406 3.23828 35.1391 3.44084 35.5067 3.8014C35.8743 4.16196 36.0808 4.65099 36.0808 5.1609V7.08352H4.72078V9.00614H38.0408C38.5606 9.00614 39.0591 9.2087 39.4267 9.56926C39.7943 9.92982 40.0008 10.4188 40.0008 10.9288V30.1549C40.0008 31.1748 39.5878 32.1528 38.8526 32.8739C38.1175 33.5951 37.1204 34.0002 36.0808 34.0002H4.72078C3.68113 34.0002 2.68407 33.5951 1.94892 32.8739C1.21378 32.1528 0.800781 31.1748 0.800781 30.1549V7.08352ZM33.1408 24.3871C33.9205 24.3871 34.6683 24.0833 35.2197 23.5424C35.771 23.0016 36.0808 22.268 36.0808 21.5032C36.0808 20.7383 35.771 20.0048 35.2197 19.4639C34.6683 18.9231 33.9205 18.6192 33.1408 18.6192C32.361 18.6192 31.6132 18.9231 31.0619 19.4639C30.5105 20.0048 30.2008 20.7383 30.2008 21.5032C30.2008 22.268 30.5105 23.0016 31.0619 23.5424C31.6132 24.0833 32.361 24.3871 33.1408 24.3871Z" fill="#6256CA"/>
</g>
<defs>
<clipPath id="clip0_1966_18818">
<rect width="40" height="34" fill="white"/>
</clipPath>
</defs>
</svg>
