<svg width="47" height="47" viewBox="0 0 47 47" fill="none" xmlns="http://www.w3.org/2000/svg">
<rect x="0.6875" y="0.6875" width="45.63" height="45.63" rx="22.815" fill="#702DFF" fill-opacity="0.2"/>
<path d="M29.8789 12.5039H17.1289C16.5653 12.5039 16.0248 12.7212 15.6263 13.108C15.2278 13.4948 15.0039 14.0194 15.0039 14.5664V34.5039H32.0039V14.5664C32.0039 14.0194 31.78 13.4948 31.3815 13.108C30.983 12.7212 30.4425 12.5039 29.8789 12.5039ZM22.0872 33.1289V29.0039H24.9206V33.1289H22.0872ZM30.5872 33.1289H26.3372V28.3164C26.3372 28.1341 26.2626 27.9592 26.1298 27.8303C25.9969 27.7013 25.8168 27.6289 25.6289 27.6289H21.3789C21.191 27.6289 21.0109 27.7013 20.878 27.8303C20.7452 27.9592 20.6706 28.1341 20.6706 28.3164V33.1289H16.4206V14.5664C16.4206 14.3841 16.4952 14.2092 16.628 14.0803C16.7609 13.9513 16.941 13.8789 17.1289 13.8789H29.8789C30.0668 13.8789 30.2469 13.9513 30.3798 14.0803C30.5126 14.2092 30.5872 14.3841 30.5872 14.5664V33.1289ZM19.2539 16.6289H22.0872V19.3789H19.2539V16.6289ZM24.9206 16.6289H27.7539V19.3789H24.9206V16.6289ZM19.2539 22.1289H22.0872V24.8789H19.2539V22.1289ZM24.9206 22.1289H27.7539V24.8789H24.9206V22.1289Z" fill="#6256CA"/>
</svg>
