<svg width="47" height="47" viewBox="0 0 47 47" fill="none" xmlns="http://www.w3.org/2000/svg">
<rect x="0.6875" y="0.6875" width="45.63" height="45.63" rx="22.815" fill="#702DFF" fill-opacity="0.2"/>
<path d="M33.5039 20.5039H24.5039V17.5039C24.5039 16.7083 24.82 15.9452 25.3826 15.3826C25.9452 14.82 26.7083 14.5039 27.5039 14.5039C27.7691 14.5039 28.0235 14.3985 28.211 14.211C28.3986 14.0235 28.5039 13.7691 28.5039 13.5039C28.5039 13.2387 28.3986 12.9843 28.211 12.7968C28.0235 12.6093 27.7691 12.5039 27.5039 12.5039C26.562 12.5068 25.6402 12.776 24.8448 13.2805C24.0494 13.7849 23.413 14.5041 23.0089 15.3549C21.9621 14.3244 20.5893 13.6901 19.126 13.5609C17.6627 13.4318 16.2001 13.8157 14.9889 14.6469C14.7854 14.7691 14.6319 14.9598 14.5561 15.1848C14.4802 15.4098 14.4869 15.6544 14.5749 15.8749C15.2234 17.3368 16.4135 18.4903 17.8949 19.0929C18.5564 19.3423 19.258 19.4684 19.9649 19.4649C20.8313 19.4487 21.6891 19.29 22.5039 18.9949V20.5039H13.5039C13.2387 20.5039 12.9843 20.6093 12.7968 20.7968C12.6093 20.9843 12.5039 21.2387 12.5039 21.5039V33.5039C12.5039 33.7691 12.6093 34.0235 12.7968 34.211C12.9843 34.3986 13.2387 34.5039 13.5039 34.5039H33.5039C33.7691 34.5039 34.0235 34.3986 34.211 34.211C34.3986 34.0235 34.5039 33.7691 34.5039 33.5039V21.5039C34.5039 21.2387 34.3986 20.9843 34.211 20.7968C34.0235 20.6093 33.7691 20.5039 33.5039 20.5039ZM18.6269 17.2319C17.9397 16.9634 17.3425 16.5062 16.9039 15.9129C17.7569 15.5456 18.7053 15.462 19.6093 15.6747C20.5134 15.8873 21.3251 16.3849 21.9249 17.0939C20.8763 17.5276 19.7081 17.5765 18.6269 17.2319ZM32.5039 30.6879C32.0852 30.8365 31.7049 31.0766 31.3908 31.3908C31.0766 31.7049 30.8365 32.0852 30.6879 32.5039H16.3199C16.1713 32.0852 15.9312 31.7049 15.617 31.3908C15.3029 31.0766 14.9226 30.8365 14.5039 30.6879V24.3199C14.9226 24.1713 15.3029 23.9312 15.617 23.617C15.9312 23.3029 16.1713 22.9226 16.3199 22.5039H30.6879C30.8365 22.9226 31.0766 23.3029 31.3908 23.617C31.7049 23.9312 32.0852 24.1713 32.5039 24.3199V30.6879ZM25.5039 27.5039C25.5039 27.8995 25.3866 28.2861 25.1668 28.615C24.9471 28.9439 24.6347 29.2003 24.2693 29.3517C23.9038 29.503 23.5017 29.5426 23.1137 29.4655C22.7258 29.3883 22.3694 29.1978 22.0897 28.9181C21.81 28.6384 21.6195 28.282 21.5423 27.8941C21.4652 27.5061 21.5048 27.104 21.6561 26.7385C21.8075 26.3731 22.0639 26.0607 22.3928 25.841C22.7217 25.6212 23.1083 25.5039 23.5039 25.5039C24.0343 25.5039 24.543 25.7146 24.9181 26.0897C25.2932 26.4648 25.5039 26.9735 25.5039 27.5039Z" fill="#6256CA"/>
</svg>
