<svg width="49" height="44" viewBox="0 0 49 44" fill="none" xmlns="http://www.w3.org/2000/svg">
<rect x="0.6875" y="0.6875" width="47.375" height="42.375" rx="21.1875" fill="#702DFF" fill-opacity="0.2"/>
<path d="M23.385 24.6029C23.2639 24.832 23.2639 25.132 23.2639 25.7321V27.6607C23.2639 28.2608 23.2639 28.5608 23.385 28.79C23.4916 28.9916 23.6614 29.1555 23.8706 29.2582C24.1082 29.375 24.4193 29.375 25.0417 29.375H27.0417C27.664 29.375 27.9751 29.375 28.2128 29.2582C28.4219 29.1555 28.5918 28.9916 28.6983 28.79C28.8194 28.5608 28.8194 28.2608 28.8194 27.6607V25.7321C28.8194 25.132 28.8194 24.832 28.6983 24.6029C28.5918 24.4012 28.4219 24.2374 28.2128 24.1346C27.9751 24.0179 27.664 24.0179 27.0417 24.0179H25.0417C24.4193 24.0179 24.1082 24.0179 23.8706 24.1346C23.6614 24.2374 23.4916 24.4012 23.385 24.6029ZM23.385 24.6029L19.6401 19.383M19.9306 17.0536H28.8194M16.1528 19.7321H18.1528C18.7751 19.7321 19.0862 19.7321 19.3239 19.6154C19.5329 19.5126 19.7029 19.3487 19.8095 19.1471C19.9306 18.9179 19.9306 18.6179 19.9306 18.0179V16.0893C19.9306 15.4892 19.9306 15.1892 19.8095 14.96C19.7029 14.7584 19.5329 14.5945 19.3239 14.4918C19.0862 14.375 18.7751 14.375 18.1528 14.375H16.1528C15.5305 14.375 15.2194 14.375 14.9817 14.4918C14.7726 14.5945 14.6026 14.7584 14.4961 14.96C14.375 15.1892 14.375 15.4892 14.375 16.0893V18.0179C14.375 18.6179 14.375 18.9179 14.4961 19.1471C14.6026 19.3487 14.7726 19.5126 14.9817 19.6154C15.2194 19.7321 15.5305 19.7321 16.1528 19.7321ZM30.5972 19.7321H32.5972C33.2196 19.7321 33.5307 19.7321 33.7683 19.6154C33.9774 19.5126 34.1473 19.3487 34.2539 19.1471C34.375 18.9179 34.375 18.6179 34.375 18.0179V16.0893C34.375 15.4892 34.375 15.1892 34.2539 14.96C34.1473 14.7584 33.9774 14.5945 33.7683 14.4918C33.5307 14.375 33.2196 14.375 32.5972 14.375H30.5972C29.9749 14.375 29.6638 14.375 29.4261 14.4918C29.217 14.5945 29.0471 14.7584 28.9406 14.96C28.8194 15.1892 28.8194 15.4892 28.8194 16.0893V18.0179C28.8194 18.6179 28.8194 18.9179 28.9406 19.1471C29.0471 19.3487 29.217 19.5126 29.4261 19.6154C29.6638 19.7321 29.9749 19.7321 30.5972 19.7321Z" stroke="#695EBB" stroke-width="2" stroke-linecap="round" stroke-linejoin="round"/>
</svg>
